<mxfile host="app.diagrams.net" agent="Mozilla/5.0 (Windows NT 10.0; Win64; x64) AppleWebKit/537.36 (KHTML, like Gecko) Chrome/135.0.0.0 Safari/537.36" version="26.2.14">
  <diagram name="Page-1" id="62u84AA4icH98KzFlDMs">
    <mxGraphModel dx="3905" dy="2489" grid="1" gridSize="10" guides="1" tooltips="1" connect="1" arrows="1" fold="1" page="1" pageScale="1" pageWidth="850" pageHeight="1100" background="#ffffff" math="0" shadow="0">
      <root>
        <mxCell id="0" />
        <mxCell id="1" parent="0" />
        <mxCell id="yezEpMepGQEhqExbG-qg-1" value="" style="shape=umlLifeline;perimeter=lifelinePerimeter;whiteSpace=wrap;html=1;container=1;dropTarget=0;collapsible=0;recursiveResize=0;outlineConnect=0;portConstraint=eastwest;newEdgeStyle={&quot;curved&quot;:0,&quot;rounded&quot;:0};participant=umlActor;" vertex="1" parent="1">
          <mxGeometry x="-840" y="-40" width="30" height="1720" as="geometry" />
        </mxCell>
        <mxCell id="yezEpMepGQEhqExbG-qg-2" value="Company" style="text;html=1;align=center;verticalAlign=middle;resizable=0;points=[];autosize=1;strokeColor=none;fillColor=none;fontSize=14;fontStyle=1" vertex="1" parent="1">
          <mxGeometry x="-870" y="-72" width="80" height="30" as="geometry" />
        </mxCell>
        <mxCell id="yezEpMepGQEhqExbG-qg-3" value="company-homepage" style="shape=umlLifeline;perimeter=lifelinePerimeter;whiteSpace=wrap;html=1;container=1;dropTarget=0;collapsible=0;recursiveResize=0;outlineConnect=0;portConstraint=eastwest;newEdgeStyle={&quot;curved&quot;:0,&quot;rounded&quot;:0};fontSize=14;fontStyle=1" vertex="1" parent="1">
          <mxGeometry x="-720" y="-42" width="160" height="1720" as="geometry" />
        </mxCell>
        <mxCell id="yezEpMepGQEhqExbG-qg-4" value="" style="html=1;points=[[0,0,0,0,5],[0,1,0,0,-5],[1,0,0,0,5],[1,1,0,0,-5]];perimeter=orthogonalPerimeter;outlineConnect=0;targetShapes=umlLifeline;portConstraint=eastwest;newEdgeStyle={&quot;curved&quot;:0,&quot;rounded&quot;:0};strokeColor=#000000;fillColor=#dae8fc;" vertex="1" parent="yezEpMepGQEhqExbG-qg-3">
          <mxGeometry x="75" y="82" width="10" height="98" as="geometry" />
        </mxCell>
        <mxCell id="yezEpMepGQEhqExbG-qg-5" value="Selects &quot;Available Positions&quot;" style="text;html=1;align=center;verticalAlign=middle;resizable=0;points=[];autosize=1;strokeColor=none;fillColor=none;fontSize=13;fontStyle=2" vertex="1" parent="1">
          <mxGeometry x="-830" y="40" width="190" height="30" as="geometry" />
        </mxCell>
        <mxCell id="yezEpMepGQEhqExbG-qg-6" value="" style="endArrow=classic;html=1;rounded=0;" edge="1" parent="1">
          <mxGeometry width="50" height="50" relative="1" as="geometry">
            <mxPoint x="-825.25" y="70" as="sourcePoint" />
            <mxPoint x="-644.75" y="70" as="targetPoint" />
          </mxGeometry>
        </mxCell>
        <mxCell id="yezEpMepGQEhqExbG-qg-7" value="CompanyController" style="shape=umlLifeline;perimeter=lifelinePerimeter;whiteSpace=wrap;html=1;container=1;dropTarget=0;collapsible=0;recursiveResize=0;outlineConnect=0;portConstraint=eastwest;newEdgeStyle={&quot;curved&quot;:0,&quot;rounded&quot;:0};fontSize=14;fontStyle=1" vertex="1" parent="1">
          <mxGeometry x="-520" y="-40" width="140" height="1720" as="geometry" />
        </mxCell>
        <mxCell id="yezEpMepGQEhqExbG-qg-10" value="" style="html=1;points=[[0,0,0,0,5],[0,1,0,0,-5],[1,0,0,0,5],[1,1,0,0,-5]];perimeter=orthogonalPerimeter;outlineConnect=0;targetShapes=umlLifeline;portConstraint=eastwest;newEdgeStyle={&quot;curved&quot;:0,&quot;rounded&quot;:0};strokeColor=#000000;fillColor=#dae8fc;" vertex="1" parent="yezEpMepGQEhqExbG-qg-7">
          <mxGeometry x="65" y="110" width="10" height="60" as="geometry" />
        </mxCell>
        <mxCell id="yezEpMepGQEhqExbG-qg-32" value="" style="html=1;points=[[0,0,0,0,5],[0,1,0,0,-5],[1,0,0,0,5],[1,1,0,0,-5]];perimeter=orthogonalPerimeter;outlineConnect=0;targetShapes=umlLifeline;portConstraint=eastwest;newEdgeStyle={&quot;curved&quot;:0,&quot;rounded&quot;:0};strokeColor=#000000;fillColor=#dae8fc;" vertex="1" parent="yezEpMepGQEhqExbG-qg-7">
          <mxGeometry x="65" y="280" width="10" height="60" as="geometry" />
        </mxCell>
        <mxCell id="yezEpMepGQEhqExbG-qg-41" value="" style="html=1;points=[[0,0,0,0,5],[0,1,0,0,-5],[1,0,0,0,5],[1,1,0,0,-5]];perimeter=orthogonalPerimeter;outlineConnect=0;targetShapes=umlLifeline;portConstraint=eastwest;newEdgeStyle={&quot;curved&quot;:0,&quot;rounded&quot;:0};strokeColor=#000000;fillColor=#dae8fc;" vertex="1" parent="yezEpMepGQEhqExbG-qg-7">
          <mxGeometry x="65" y="390" width="10" height="60" as="geometry" />
        </mxCell>
        <mxCell id="yezEpMepGQEhqExbG-qg-102" value="" style="html=1;points=[[0,0,0,0,5],[0,1,0,0,-5],[1,0,0,0,5],[1,1,0,0,-5]];perimeter=orthogonalPerimeter;outlineConnect=0;targetShapes=umlLifeline;portConstraint=eastwest;newEdgeStyle={&quot;curved&quot;:0,&quot;rounded&quot;:0};strokeColor=#000000;fillColor=#dae8fc;" vertex="1" parent="yezEpMepGQEhqExbG-qg-7">
          <mxGeometry x="65" y="1300" width="10" height="60" as="geometry" />
        </mxCell>
        <mxCell id="yezEpMepGQEhqExbG-qg-9" value="" style="endArrow=classic;html=1;rounded=0;" edge="1" parent="1" target="yezEpMepGQEhqExbG-qg-10">
          <mxGeometry width="50" height="50" relative="1" as="geometry">
            <mxPoint x="-635" y="88" as="sourcePoint" />
            <mxPoint x="-460" y="88" as="targetPoint" />
          </mxGeometry>
        </mxCell>
        <mxCell id="yezEpMepGQEhqExbG-qg-11" value="showPositionsList()" style="text;html=1;align=center;verticalAlign=middle;resizable=0;points=[];autosize=1;strokeColor=none;fillColor=none;fontSize=13;fontStyle=2" vertex="1" parent="1">
          <mxGeometry x="-610" y="58" width="140" height="30" as="geometry" />
        </mxCell>
        <mxCell id="yezEpMepGQEhqExbG-qg-14" value="CompanyService" style="shape=umlLifeline;perimeter=lifelinePerimeter;whiteSpace=wrap;html=1;container=1;dropTarget=0;collapsible=0;recursiveResize=0;outlineConnect=0;portConstraint=eastwest;newEdgeStyle={&quot;curved&quot;:0,&quot;rounded&quot;:0};fontSize=14;fontStyle=1" vertex="1" parent="1">
          <mxGeometry x="-320" y="-40" width="120" height="1720" as="geometry" />
        </mxCell>
        <mxCell id="yezEpMepGQEhqExbG-qg-16" value="" style="html=1;points=[[0,0,0,0,5],[0,1,0,0,-5],[1,0,0,0,5],[1,1,0,0,-5]];perimeter=orthogonalPerimeter;outlineConnect=0;targetShapes=umlLifeline;portConstraint=eastwest;newEdgeStyle={&quot;curved&quot;:0,&quot;rounded&quot;:0};strokeColor=#000000;fillColor=#dae8fc;" vertex="1" parent="yezEpMepGQEhqExbG-qg-14">
          <mxGeometry x="55" y="140" width="10" height="170" as="geometry" />
        </mxCell>
        <mxCell id="yezEpMepGQEhqExbG-qg-44" value="" style="html=1;points=[[0,0,0,0,5],[0,1,0,0,-5],[1,0,0,0,5],[1,1,0,0,-5]];perimeter=orthogonalPerimeter;outlineConnect=0;targetShapes=umlLifeline;portConstraint=eastwest;newEdgeStyle={&quot;curved&quot;:0,&quot;rounded&quot;:0};strokeColor=#000000;fillColor=#dae8fc;" vertex="1" parent="yezEpMepGQEhqExbG-qg-14">
          <mxGeometry x="55" y="420" width="10" height="60" as="geometry" />
        </mxCell>
        <mxCell id="yezEpMepGQEhqExbG-qg-17" value="" style="endArrow=classic;html=1;rounded=0;" edge="1" parent="1" target="yezEpMepGQEhqExbG-qg-16">
          <mxGeometry width="50" height="50" relative="1" as="geometry">
            <mxPoint x="-440" y="120" as="sourcePoint" />
            <mxPoint x="-240.5" y="120" as="targetPoint" />
          </mxGeometry>
        </mxCell>
        <mxCell id="yezEpMepGQEhqExbG-qg-18" value="retrieveAvailablePositions()" style="text;html=1;align=center;verticalAlign=middle;resizable=0;points=[];autosize=1;strokeColor=none;fillColor=none;fontSize=13;fontStyle=2" vertex="1" parent="1">
          <mxGeometry x="-450" y="88" width="180" height="30" as="geometry" />
        </mxCell>
        <mxCell id="yezEpMepGQEhqExbG-qg-19" value="Company" style="shape=umlLifeline;perimeter=lifelinePerimeter;whiteSpace=wrap;html=1;container=1;dropTarget=0;collapsible=0;recursiveResize=0;outlineConnect=0;portConstraint=eastwest;newEdgeStyle={&quot;curved&quot;:0,&quot;rounded&quot;:0};fontSize=14;fontStyle=1" vertex="1" parent="1">
          <mxGeometry x="-170" y="-40" width="110" height="1720" as="geometry" />
        </mxCell>
        <mxCell id="yezEpMepGQEhqExbG-qg-21" value="" style="html=1;points=[[0,0,0,0,5],[0,1,0,0,-5],[1,0,0,0,5],[1,1,0,0,-5]];perimeter=orthogonalPerimeter;outlineConnect=0;targetShapes=umlLifeline;portConstraint=eastwest;newEdgeStyle={&quot;curved&quot;:0,&quot;rounded&quot;:0};strokeColor=#000000;fillColor=#dae8fc;" vertex="1" parent="yezEpMepGQEhqExbG-qg-19">
          <mxGeometry x="50" y="160" width="10" height="130" as="geometry" />
        </mxCell>
        <mxCell id="yezEpMepGQEhqExbG-qg-22" value="getPositions()" style="text;html=1;align=center;verticalAlign=middle;resizable=0;points=[];autosize=1;strokeColor=none;fillColor=none;fontSize=13;fontStyle=2" vertex="1" parent="1">
          <mxGeometry x="-230" y="110" width="100" height="30" as="geometry" />
        </mxCell>
        <mxCell id="yezEpMepGQEhqExbG-qg-23" value="" style="endArrow=classic;html=1;rounded=0;" edge="1" parent="1">
          <mxGeometry width="50" height="50" relative="1" as="geometry">
            <mxPoint x="-255" y="140" as="sourcePoint" />
            <mxPoint x="-120" y="140" as="targetPoint" />
          </mxGeometry>
        </mxCell>
        <mxCell id="yezEpMepGQEhqExbG-qg-24" value="Database (MySQL)" style="shape=umlLifeline;perimeter=lifelinePerimeter;whiteSpace=wrap;html=1;container=1;dropTarget=0;collapsible=0;recursiveResize=0;outlineConnect=0;portConstraint=eastwest;newEdgeStyle={&quot;curved&quot;:0,&quot;rounded&quot;:0};fontSize=14;fontStyle=1" vertex="1" parent="1">
          <mxGeometry x="-20" y="-42" width="100" height="1720" as="geometry" />
        </mxCell>
        <mxCell id="yezEpMepGQEhqExbG-qg-25" value="" style="html=1;points=[[0,0,0,0,5],[0,1,0,0,-5],[1,0,0,0,5],[1,1,0,0,-5]];perimeter=orthogonalPerimeter;outlineConnect=0;targetShapes=umlLifeline;portConstraint=eastwest;newEdgeStyle={&quot;curved&quot;:0,&quot;rounded&quot;:0};strokeColor=#000000;fillColor=#dae8fc;" vertex="1" parent="yezEpMepGQEhqExbG-qg-24">
          <mxGeometry x="45" y="192" width="10" height="68" as="geometry" />
        </mxCell>
        <mxCell id="yezEpMepGQEhqExbG-qg-28" value="" style="endArrow=classic;html=1;rounded=0;" edge="1" parent="1">
          <mxGeometry width="50" height="50" relative="1" as="geometry">
            <mxPoint x="-110" y="168" as="sourcePoint" />
            <mxPoint x="25" y="168" as="targetPoint" />
          </mxGeometry>
        </mxCell>
        <mxCell id="yezEpMepGQEhqExbG-qg-29" value="retrieveProfile()" style="text;html=1;align=center;verticalAlign=middle;resizable=0;points=[];autosize=1;strokeColor=none;fillColor=none;" vertex="1" parent="1">
          <mxGeometry x="-101" y="138" width="110" height="30" as="geometry" />
        </mxCell>
        <mxCell id="yezEpMepGQEhqExbG-qg-30" value="return Positions" style="html=1;verticalAlign=bottom;endArrow=open;dashed=1;endSize=8;curved=0;rounded=0;fontSize=13;fontStyle=2" edge="1" parent="1">
          <mxGeometry x="-0.0026" relative="1" as="geometry">
            <mxPoint x="23.75" y="200" as="sourcePoint" />
            <mxPoint x="-115.75" y="200" as="targetPoint" />
            <mxPoint as="offset" />
          </mxGeometry>
        </mxCell>
        <mxCell id="yezEpMepGQEhqExbG-qg-31" value="return Positions" style="html=1;verticalAlign=bottom;endArrow=open;dashed=1;endSize=8;curved=0;rounded=0;fontSize=13;fontStyle=2" edge="1" parent="1">
          <mxGeometry x="-0.0026" relative="1" as="geometry">
            <mxPoint x="-120.5" y="220" as="sourcePoint" />
            <mxPoint x="-260" y="220" as="targetPoint" />
            <mxPoint as="offset" />
          </mxGeometry>
        </mxCell>
        <mxCell id="yezEpMepGQEhqExbG-qg-33" value="return Positions" style="html=1;verticalAlign=bottom;endArrow=open;dashed=1;endSize=8;curved=0;rounded=0;fontSize=13;fontStyle=2;exitX=0;exitY=1;exitDx=0;exitDy=-5;exitPerimeter=0;" edge="1" parent="1">
          <mxGeometry x="-0.0026" relative="1" as="geometry">
            <mxPoint x="-265" y="253" as="sourcePoint" />
            <mxPoint x="-450.3695652173915" y="253" as="targetPoint" />
            <mxPoint as="offset" />
          </mxGeometry>
        </mxCell>
        <mxCell id="yezEpMepGQEhqExbG-qg-34" value="" style="endArrow=classic;html=1;rounded=0;" edge="1" parent="1" target="yezEpMepGQEhqExbG-qg-37">
          <mxGeometry width="50" height="50" relative="1" as="geometry">
            <mxPoint x="-450.3695652173915" y="289" as="sourcePoint" />
            <mxPoint x="130" y="289" as="targetPoint" />
          </mxGeometry>
        </mxCell>
        <mxCell id="yezEpMepGQEhqExbG-qg-35" value="AvailablePositions" style="shape=umlLifeline;perimeter=lifelinePerimeter;whiteSpace=wrap;html=1;container=1;dropTarget=0;collapsible=0;recursiveResize=0;outlineConnect=0;portConstraint=eastwest;newEdgeStyle={&quot;curved&quot;:0,&quot;rounded&quot;:0};fontSize=14;fontStyle=1" vertex="1" parent="1">
          <mxGeometry x="110" y="-40" width="150" height="1760" as="geometry" />
        </mxCell>
        <mxCell id="yezEpMepGQEhqExbG-qg-37" value="" style="html=1;points=[[0,0,0,0,5],[0,1,0,0,-5],[1,0,0,0,5],[1,1,0,0,-5]];perimeter=orthogonalPerimeter;outlineConnect=0;targetShapes=umlLifeline;portConstraint=eastwest;newEdgeStyle={&quot;curved&quot;:0,&quot;rounded&quot;:0};strokeColor=#000000;fillColor=#dae8fc;" vertex="1" parent="yezEpMepGQEhqExbG-qg-35">
          <mxGeometry x="70" y="300" width="10" height="130" as="geometry" />
        </mxCell>
        <mxCell id="yezEpMepGQEhqExbG-qg-103" value="" style="html=1;points=[[0,0,0,0,5],[0,1,0,0,-5],[1,0,0,0,5],[1,1,0,0,-5]];perimeter=orthogonalPerimeter;outlineConnect=0;targetShapes=umlLifeline;portConstraint=eastwest;newEdgeStyle={&quot;curved&quot;:0,&quot;rounded&quot;:0};strokeColor=#000000;fillColor=#dae8fc;" vertex="1" parent="yezEpMepGQEhqExbG-qg-35">
          <mxGeometry x="70" y="1320" width="10" height="48" as="geometry" />
        </mxCell>
        <mxCell id="yezEpMepGQEhqExbG-qg-38" value="&quot;call&quot;" style="text;html=1;align=center;verticalAlign=middle;resizable=0;points=[];autosize=1;strokeColor=none;fillColor=none;fontSize=13;fontStyle=2" vertex="1" parent="1">
          <mxGeometry x="-410" y="258" width="50" height="30" as="geometry" />
        </mxCell>
        <mxCell id="yezEpMepGQEhqExbG-qg-39" value="" style="endArrow=classic;html=1;rounded=0;" edge="1" parent="1" target="yezEpMepGQEhqExbG-qg-37">
          <mxGeometry width="50" height="50" relative="1" as="geometry">
            <mxPoint x="-824" y="320" as="sourcePoint" />
            <mxPoint x="170.5" y="320" as="targetPoint" />
          </mxGeometry>
        </mxCell>
        <mxCell id="yezEpMepGQEhqExbG-qg-40" value="Selects position to delete &amp;amp;&amp;nbsp;&lt;div&gt;click &quot;Delete&quot;&lt;/div&gt;" style="text;html=1;align=center;verticalAlign=middle;resizable=0;points=[];autosize=1;strokeColor=none;fillColor=none;" vertex="1" parent="1">
          <mxGeometry x="-820" y="280" width="170" height="40" as="geometry" />
        </mxCell>
        <mxCell id="yezEpMepGQEhqExbG-qg-42" value="" style="endArrow=classic;html=1;rounded=0;" edge="1" parent="1">
          <mxGeometry width="50" height="50" relative="1" as="geometry">
            <mxPoint x="179.99999999999955" y="366" as="sourcePoint" />
            <mxPoint x="-450.55263157894706" y="366" as="targetPoint" />
          </mxGeometry>
        </mxCell>
        <mxCell id="yezEpMepGQEhqExbG-qg-43" value="deletePosition()" style="text;html=1;align=center;verticalAlign=middle;resizable=0;points=[];autosize=1;strokeColor=none;fillColor=none;fontSize=13;fontStyle=2" vertex="1" parent="1">
          <mxGeometry x="40" y="330" width="110" height="30" as="geometry" />
        </mxCell>
        <mxCell id="yezEpMepGQEhqExbG-qg-45" value="" style="endArrow=classic;html=1;rounded=0;" edge="1" parent="1" target="yezEpMepGQEhqExbG-qg-44">
          <mxGeometry width="50" height="50" relative="1" as="geometry">
            <mxPoint x="-450.55263157894706" y="399" as="sourcePoint" />
            <mxPoint x="-210" y="399" as="targetPoint" />
          </mxGeometry>
        </mxCell>
        <mxCell id="yezEpMepGQEhqExbG-qg-46" value="deletePosition()" style="text;html=1;align=center;verticalAlign=middle;resizable=0;points=[];autosize=1;strokeColor=none;fillColor=none;fontSize=13;fontStyle=2" vertex="1" parent="1">
          <mxGeometry x="-425" y="368" width="110" height="30" as="geometry" />
        </mxCell>
        <mxCell id="yezEpMepGQEhqExbG-qg-48" value="TraineeshipPosition" style="shape=umlLifeline;perimeter=lifelinePerimeter;whiteSpace=wrap;html=1;container=1;dropTarget=0;collapsible=0;recursiveResize=0;outlineConnect=0;portConstraint=eastwest;newEdgeStyle={&quot;curved&quot;:0,&quot;rounded&quot;:0};fontSize=14;fontStyle=1" vertex="1" parent="1">
          <mxGeometry x="290" y="-40" width="160" height="1720" as="geometry" />
        </mxCell>
        <mxCell id="yezEpMepGQEhqExbG-qg-49" value="" style="html=1;points=[[0,0,0,0,5],[0,1,0,0,-5],[1,0,0,0,5],[1,1,0,0,-5]];perimeter=orthogonalPerimeter;outlineConnect=0;targetShapes=umlLifeline;portConstraint=eastwest;newEdgeStyle={&quot;curved&quot;:0,&quot;rounded&quot;:0};strokeColor=#000000;fillColor=#dae8fc;" vertex="1" parent="yezEpMepGQEhqExbG-qg-48">
          <mxGeometry x="75" y="450" width="10" height="48" as="geometry" />
        </mxCell>
        <mxCell id="yezEpMepGQEhqExbG-qg-50" value="" style="endArrow=classic;html=1;rounded=0;" edge="1" parent="1">
          <mxGeometry width="50" height="50" relative="1" as="geometry">
            <mxPoint x="-261.0384615384619" y="431" as="sourcePoint" />
            <mxPoint x="369.50000000000045" y="431" as="targetPoint" />
          </mxGeometry>
        </mxCell>
        <mxCell id="yezEpMepGQEhqExbG-qg-51" value="isAssigned()" style="text;html=1;align=center;verticalAlign=middle;resizable=0;points=[];autosize=1;strokeColor=none;fillColor=none;fontSize=13;fontStyle=2" vertex="1" parent="1">
          <mxGeometry x="-235" y="398" width="100" height="30" as="geometry" />
        </mxCell>
        <mxCell id="yezEpMepGQEhqExbG-qg-52" value="alt" style="shape=umlFrame;whiteSpace=wrap;html=1;pointerEvents=0;" vertex="1" parent="1">
          <mxGeometry x="-710" y="480" width="1800" height="340" as="geometry" />
        </mxCell>
        <mxCell id="yezEpMepGQEhqExbG-qg-54" value="isAssigned() = false" style="text;html=1;align=center;verticalAlign=middle;resizable=0;points=[];autosize=1;strokeColor=none;fillColor=none;fontSize=13;fontStyle=2" vertex="1" parent="1">
          <mxGeometry x="-620" y="500" width="140" height="30" as="geometry" />
        </mxCell>
        <mxCell id="yezEpMepGQEhqExbG-qg-55" value="Not Assigned Position" style="text;html=1;align=center;verticalAlign=middle;resizable=0;points=[];autosize=1;strokeColor=#666666;fillColor=#f5f5f5;fontSize=14;fontStyle=2;fontColor=#333333;" vertex="1" parent="1">
          <mxGeometry x="-220" y="500" width="160" height="30" as="geometry" />
        </mxCell>
        <mxCell id="yezEpMepGQEhqExbG-qg-56" value="DeleteConfirmation" style="shape=umlLifeline;perimeter=lifelinePerimeter;whiteSpace=wrap;html=1;container=1;dropTarget=0;collapsible=0;recursiveResize=0;outlineConnect=0;portConstraint=eastwest;newEdgeStyle={&quot;curved&quot;:0,&quot;rounded&quot;:0};fontSize=14;fontStyle=1" vertex="1" parent="1">
          <mxGeometry x="480" y="-42" width="160" height="1720" as="geometry" />
        </mxCell>
        <mxCell id="yezEpMepGQEhqExbG-qg-57" value="" style="html=1;points=[[0,0,0,0,5],[0,1,0,0,-5],[1,0,0,0,5],[1,1,0,0,-5]];perimeter=orthogonalPerimeter;outlineConnect=0;targetShapes=umlLifeline;portConstraint=eastwest;newEdgeStyle={&quot;curved&quot;:0,&quot;rounded&quot;:0};strokeColor=#000000;fillColor=#dae8fc;" vertex="1" parent="yezEpMepGQEhqExbG-qg-56">
          <mxGeometry x="75" y="592" width="10" height="98" as="geometry" />
        </mxCell>
        <mxCell id="yezEpMepGQEhqExbG-qg-76" value="" style="html=1;points=[[0,0,0,0,5],[0,1,0,0,-5],[1,0,0,0,5],[1,1,0,0,-5]];perimeter=orthogonalPerimeter;outlineConnect=0;targetShapes=umlLifeline;portConstraint=eastwest;newEdgeStyle={&quot;curved&quot;:0,&quot;rounded&quot;:0};strokeColor=#000000;fillColor=#dae8fc;" vertex="1" parent="yezEpMepGQEhqExbG-qg-56">
          <mxGeometry x="75" y="992" width="10" height="98" as="geometry" />
        </mxCell>
        <mxCell id="yezEpMepGQEhqExbG-qg-58" value="" style="html=1;points=[[0,0,0,0,5],[0,1,0,0,-5],[1,0,0,0,5],[1,1,0,0,-5]];perimeter=orthogonalPerimeter;outlineConnect=0;targetShapes=umlLifeline;portConstraint=eastwest;newEdgeStyle={&quot;curved&quot;:0,&quot;rounded&quot;:0};strokeColor=#000000;fillColor=#dae8fc;" vertex="1" parent="1">
          <mxGeometry x="-455" y="550" width="10" height="48" as="geometry" />
        </mxCell>
        <mxCell id="yezEpMepGQEhqExbG-qg-59" value="" style="endArrow=classic;html=1;rounded=0;" edge="1" parent="1" source="yezEpMepGQEhqExbG-qg-58" target="yezEpMepGQEhqExbG-qg-56">
          <mxGeometry width="50" height="50" relative="1" as="geometry">
            <mxPoint x="-70" y="420" as="sourcePoint" />
            <mxPoint x="-20" y="370" as="targetPoint" />
          </mxGeometry>
        </mxCell>
        <mxCell id="yezEpMepGQEhqExbG-qg-60" value="&quot;call&quot;" style="text;html=1;align=center;verticalAlign=middle;resizable=0;points=[];autosize=1;strokeColor=none;fillColor=none;fontSize=13;fontStyle=2" vertex="1" parent="1">
          <mxGeometry x="-385" y="540" width="50" height="30" as="geometry" />
        </mxCell>
        <mxCell id="yezEpMepGQEhqExbG-qg-61" value="show question&amp;nbsp;&lt;div&gt;message&lt;/div&gt;" style="html=1;align=left;spacingLeft=2;endArrow=block;rounded=0;edgeStyle=orthogonalEdgeStyle;curved=0;rounded=0;fontSize=13;fontStyle=2" edge="1" parent="1">
          <mxGeometry relative="1" as="geometry">
            <mxPoint x="560" y="590" as="sourcePoint" />
            <Array as="points">
              <mxPoint x="590" y="620" />
            </Array>
            <mxPoint x="565" y="620.0588235294122" as="targetPoint" />
          </mxGeometry>
        </mxCell>
        <mxCell id="yezEpMepGQEhqExbG-qg-62" value="" style="endArrow=classic;html=1;rounded=0;" edge="1" parent="1">
          <mxGeometry width="50" height="50" relative="1" as="geometry">
            <mxPoint x="-830" y="990" as="sourcePoint" />
            <mxPoint x="549.5" y="990" as="targetPoint" />
          </mxGeometry>
        </mxCell>
        <mxCell id="yezEpMepGQEhqExbG-qg-63" value="Approves the delete&amp;nbsp;&lt;div&gt;of the selected Position&lt;/div&gt;" style="text;html=1;align=center;verticalAlign=middle;resizable=0;points=[];autosize=1;strokeColor=none;fillColor=none;fontSize=13;fontStyle=2" vertex="1" parent="1">
          <mxGeometry x="-810" y="930" width="160" height="40" as="geometry" />
        </mxCell>
        <mxCell id="yezEpMepGQEhqExbG-qg-64" value="Assigned Position" style="text;html=1;align=center;verticalAlign=middle;resizable=0;points=[];autosize=1;strokeColor=#666666;fillColor=#f5f5f5;fontSize=14;fontStyle=2;fontColor=#333333;" vertex="1" parent="1">
          <mxGeometry x="-190" y="640" width="130" height="30" as="geometry" />
        </mxCell>
        <mxCell id="yezEpMepGQEhqExbG-qg-65" value="" style="html=1;points=[[0,0,0,0,5],[0,1,0,0,-5],[1,0,0,0,5],[1,1,0,0,-5]];perimeter=orthogonalPerimeter;outlineConnect=0;targetShapes=umlLifeline;portConstraint=eastwest;newEdgeStyle={&quot;curved&quot;:0,&quot;rounded&quot;:0};strokeColor=#000000;fillColor=#dae8fc;" vertex="1" parent="1">
          <mxGeometry x="-455" y="690" width="10" height="30" as="geometry" />
        </mxCell>
        <mxCell id="yezEpMepGQEhqExbG-qg-66" value="isAssigned() = true" style="text;html=1;align=center;verticalAlign=middle;resizable=0;points=[];autosize=1;strokeColor=none;fillColor=none;fontSize=13;fontStyle=2" vertex="1" parent="1">
          <mxGeometry x="-600" y="650" width="130" height="30" as="geometry" />
        </mxCell>
        <mxCell id="yezEpMepGQEhqExbG-qg-67" value="DeleteDenied" style="shape=umlLifeline;perimeter=lifelinePerimeter;whiteSpace=wrap;html=1;container=1;dropTarget=0;collapsible=0;recursiveResize=0;outlineConnect=0;portConstraint=eastwest;newEdgeStyle={&quot;curved&quot;:0,&quot;rounded&quot;:0};fontSize=14;fontStyle=1" vertex="1" parent="1">
          <mxGeometry x="680" y="-40" width="160" height="1720" as="geometry" />
        </mxCell>
        <mxCell id="yezEpMepGQEhqExbG-qg-68" value="" style="html=1;points=[[0,0,0,0,5],[0,1,0,0,-5],[1,0,0,0,5],[1,1,0,0,-5]];perimeter=orthogonalPerimeter;outlineConnect=0;targetShapes=umlLifeline;portConstraint=eastwest;newEdgeStyle={&quot;curved&quot;:0,&quot;rounded&quot;:0};strokeColor=#000000;fillColor=#dae8fc;" vertex="1" parent="yezEpMepGQEhqExbG-qg-67">
          <mxGeometry x="75" y="710" width="10" height="100" as="geometry" />
        </mxCell>
        <mxCell id="yezEpMepGQEhqExbG-qg-69" value="" style="endArrow=classic;html=1;rounded=0;" edge="1" parent="1">
          <mxGeometry width="50" height="50" relative="1" as="geometry">
            <mxPoint x="-450" y="702" as="sourcePoint" />
            <mxPoint x="759.5" y="702" as="targetPoint" />
          </mxGeometry>
        </mxCell>
        <mxCell id="yezEpMepGQEhqExbG-qg-71" value="&quot;call&quot;" style="text;html=1;align=center;verticalAlign=middle;resizable=0;points=[];autosize=1;strokeColor=none;fillColor=none;fontSize=13;fontStyle=2" vertex="1" parent="1">
          <mxGeometry x="-385" y="670" width="50" height="30" as="geometry" />
        </mxCell>
        <mxCell id="yezEpMepGQEhqExbG-qg-72" value="show error&amp;nbsp;&lt;div&gt;message&lt;/div&gt;" style="html=1;align=left;spacingLeft=2;endArrow=block;rounded=0;edgeStyle=orthogonalEdgeStyle;curved=0;rounded=0;fontSize=13;fontStyle=2" edge="1" parent="1">
          <mxGeometry relative="1" as="geometry">
            <mxPoint x="760" y="730" as="sourcePoint" />
            <Array as="points">
              <mxPoint x="790" y="760" />
            </Array>
            <mxPoint x="765" y="760.0588235294122" as="targetPoint" />
          </mxGeometry>
        </mxCell>
        <mxCell id="yezEpMepGQEhqExbG-qg-73" value="alt" style="shape=umlFrame;whiteSpace=wrap;html=1;pointerEvents=0;" vertex="1" parent="1">
          <mxGeometry x="-910" y="900" width="2160" height="340" as="geometry" />
        </mxCell>
        <mxCell id="yezEpMepGQEhqExbG-qg-78" value="Approve Delete" style="text;html=1;align=center;verticalAlign=middle;resizable=0;points=[];autosize=1;strokeColor=#666666;fillColor=#f5f5f5;fontSize=14;fontStyle=2;fontColor=#333333;" vertex="1" parent="1">
          <mxGeometry x="-190" y="920" width="120" height="30" as="geometry" />
        </mxCell>
        <mxCell id="yezEpMepGQEhqExbG-qg-80" value="Denied Delete" style="text;html=1;align=center;verticalAlign=middle;resizable=0;points=[];autosize=1;strokeColor=#666666;fillColor=#f5f5f5;fontSize=14;fontStyle=2;fontColor=#333333;" vertex="1" parent="1">
          <mxGeometry x="-170" y="1130" width="110" height="30" as="geometry" />
        </mxCell>
        <mxCell id="yezEpMepGQEhqExbG-qg-81" value="" style="html=1;points=[[0,0,0,0,5],[0,1,0,0,-5],[1,0,0,0,5],[1,1,0,0,-5]];perimeter=orthogonalPerimeter;outlineConnect=0;targetShapes=umlLifeline;portConstraint=eastwest;newEdgeStyle={&quot;curved&quot;:0,&quot;rounded&quot;:0};strokeColor=#000000;fillColor=#dae8fc;" vertex="1" parent="1">
          <mxGeometry x="-455" y="1020" width="10" height="60" as="geometry" />
        </mxCell>
        <mxCell id="yezEpMepGQEhqExbG-qg-82" value="" style="endArrow=classic;html=1;rounded=0;" edge="1" parent="1">
          <mxGeometry width="50" height="50" relative="1" as="geometry">
            <mxPoint x="559.5" y="1038" as="sourcePoint" />
            <mxPoint x="-445" y="1038" as="targetPoint" />
          </mxGeometry>
        </mxCell>
        <mxCell id="yezEpMepGQEhqExbG-qg-83" value="deletePositionApproved()" style="text;html=1;align=center;verticalAlign=middle;resizable=0;points=[];autosize=1;strokeColor=none;fillColor=none;fontSize=13;fontStyle=2" vertex="1" parent="1">
          <mxGeometry x="380" y="1008" width="170" height="30" as="geometry" />
        </mxCell>
        <mxCell id="yezEpMepGQEhqExbG-qg-84" value="" style="html=1;points=[[0,0,0,0,5],[0,1,0,0,-5],[1,0,0,0,5],[1,1,0,0,-5]];perimeter=orthogonalPerimeter;outlineConnect=0;targetShapes=umlLifeline;portConstraint=eastwest;newEdgeStyle={&quot;curved&quot;:0,&quot;rounded&quot;:0};strokeColor=#000000;fillColor=#dae8fc;" vertex="1" parent="1">
          <mxGeometry x="-265" y="1055" width="10" height="55" as="geometry" />
        </mxCell>
        <mxCell id="yezEpMepGQEhqExbG-qg-85" value="" style="endArrow=classic;html=1;rounded=0;exitX=1;exitY=1;exitDx=0;exitDy=-5;exitPerimeter=0;" edge="1" parent="1" source="yezEpMepGQEhqExbG-qg-81" target="yezEpMepGQEhqExbG-qg-84">
          <mxGeometry width="50" height="50" relative="1" as="geometry">
            <mxPoint x="-300" y="1000" as="sourcePoint" />
            <mxPoint x="-250" y="950" as="targetPoint" />
          </mxGeometry>
        </mxCell>
        <mxCell id="yezEpMepGQEhqExbG-qg-86" value="deletePositionApproved()" style="text;html=1;align=center;verticalAlign=middle;resizable=0;points=[];autosize=1;strokeColor=none;fillColor=none;fontSize=13;fontStyle=2" vertex="1" parent="1">
          <mxGeometry x="-440" y="1050" width="170" height="30" as="geometry" />
        </mxCell>
        <mxCell id="yezEpMepGQEhqExbG-qg-87" value="TraineeshipDAORepository" style="shape=umlLifeline;perimeter=lifelinePerimeter;whiteSpace=wrap;html=1;container=1;dropTarget=0;collapsible=0;recursiveResize=0;outlineConnect=0;portConstraint=eastwest;newEdgeStyle={&quot;curved&quot;:0,&quot;rounded&quot;:0};fontSize=14;fontStyle=1" vertex="1" parent="1">
          <mxGeometry x="880" y="-40" width="210" height="1720" as="geometry" />
        </mxCell>
        <mxCell id="yezEpMepGQEhqExbG-qg-89" value="" style="html=1;points=[[0,0,0,0,5],[0,1,0,0,-5],[1,0,0,0,5],[1,1,0,0,-5]];perimeter=orthogonalPerimeter;outlineConnect=0;targetShapes=umlLifeline;portConstraint=eastwest;newEdgeStyle={&quot;curved&quot;:0,&quot;rounded&quot;:0};strokeColor=#000000;fillColor=#dae8fc;" vertex="1" parent="yezEpMepGQEhqExbG-qg-87">
          <mxGeometry x="100" y="1102" width="10" height="88" as="geometry" />
        </mxCell>
        <mxCell id="yezEpMepGQEhqExbG-qg-90" value="" style="endArrow=classic;html=1;rounded=0;" edge="1" parent="1">
          <mxGeometry width="50" height="50" relative="1" as="geometry">
            <mxPoint x="-261.31818181818153" y="1097" as="sourcePoint" />
            <mxPoint x="984.4999999999991" y="1097" as="targetPoint" />
          </mxGeometry>
        </mxCell>
        <mxCell id="yezEpMepGQEhqExbG-qg-91" value="delete(pos)" style="text;html=1;align=center;verticalAlign=middle;resizable=0;points=[];autosize=1;strokeColor=none;fillColor=none;" vertex="1" parent="1">
          <mxGeometry x="-230" y="1067.5" width="80" height="30" as="geometry" />
        </mxCell>
        <mxCell id="yezEpMepGQEhqExbG-qg-92" value="Database (MySQL)" style="shape=umlLifeline;perimeter=lifelinePerimeter;whiteSpace=wrap;html=1;container=1;dropTarget=0;collapsible=0;recursiveResize=0;outlineConnect=0;portConstraint=eastwest;newEdgeStyle={&quot;curved&quot;:0,&quot;rounded&quot;:0};fontSize=14;fontStyle=1" vertex="1" parent="1">
          <mxGeometry x="1150" y="-40" width="100" height="1720" as="geometry" />
        </mxCell>
        <mxCell id="yezEpMepGQEhqExbG-qg-95" value="" style="html=1;points=[[0,0,0,0,5],[0,1,0,0,-5],[1,0,0,0,5],[1,1,0,0,-5]];perimeter=orthogonalPerimeter;outlineConnect=0;targetShapes=umlLifeline;portConstraint=eastwest;newEdgeStyle={&quot;curved&quot;:0,&quot;rounded&quot;:0};strokeColor=#000000;fillColor=#dae8fc;" vertex="1" parent="yezEpMepGQEhqExbG-qg-92">
          <mxGeometry x="45" y="1152" width="10" height="48" as="geometry" />
        </mxCell>
        <mxCell id="yezEpMepGQEhqExbG-qg-96" value="&quot;deletePosition&quot;" style="html=1;verticalAlign=bottom;endArrow=open;dashed=1;endSize=8;curved=0;rounded=0;fontSize=13;fontStyle=2;exitX=1;exitY=1;exitDx=0;exitDy=-5;exitPerimeter=0;" edge="1" parent="1" source="yezEpMepGQEhqExbG-qg-89" target="yezEpMepGQEhqExbG-qg-92">
          <mxGeometry x="-0.0453" relative="1" as="geometry">
            <mxPoint x="870" y="1030" as="sourcePoint" />
            <mxPoint x="1421" y="1030" as="targetPoint" />
            <mxPoint as="offset" />
          </mxGeometry>
        </mxCell>
        <mxCell id="yezEpMepGQEhqExbG-qg-98" value="" style="html=1;points=[[0,0,0,0,5],[0,1,0,0,-5],[1,0,0,0,5],[1,1,0,0,-5]];perimeter=orthogonalPerimeter;outlineConnect=0;targetShapes=umlLifeline;portConstraint=eastwest;newEdgeStyle={&quot;curved&quot;:0,&quot;rounded&quot;:0};strokeColor=#000000;fillColor=#dae8fc;" vertex="1" parent="1">
          <mxGeometry x="555" y="1180" width="10" height="48" as="geometry" />
        </mxCell>
        <mxCell id="yezEpMepGQEhqExbG-qg-99" value="" style="endArrow=classic;html=1;rounded=0;" edge="1" parent="1">
          <mxGeometry width="50" height="50" relative="1" as="geometry">
            <mxPoint x="-824.5" y="1200" as="sourcePoint" />
            <mxPoint x="555" y="1200" as="targetPoint" />
          </mxGeometry>
        </mxCell>
        <mxCell id="yezEpMepGQEhqExbG-qg-101" value="Denies the delete&amp;nbsp;&lt;div&gt;of the selected Position&lt;/div&gt;" style="text;html=1;align=center;verticalAlign=middle;resizable=0;points=[];autosize=1;strokeColor=none;fillColor=none;fontSize=13;fontStyle=2" vertex="1" parent="1">
          <mxGeometry x="-810" y="1159" width="160" height="40" as="geometry" />
        </mxCell>
        <mxCell id="yezEpMepGQEhqExbG-qg-104" value="" style="endArrow=classic;html=1;rounded=0;" edge="1" parent="1">
          <mxGeometry width="50" height="50" relative="1" as="geometry">
            <mxPoint x="-454.99818181818154" y="1300" as="sourcePoint" />
            <mxPoint x="180.81999999999954" y="1300" as="targetPoint" />
          </mxGeometry>
        </mxCell>
        <mxCell id="yezEpMepGQEhqExbG-qg-105" value="&quot;call&quot;" style="text;html=1;align=center;verticalAlign=middle;resizable=0;points=[];autosize=1;strokeColor=none;fillColor=none;fontSize=13;fontStyle=2" vertex="1" parent="1">
          <mxGeometry x="-400" y="1270" width="50" height="30" as="geometry" />
        </mxCell>
      </root>
    </mxGraphModel>
  </diagram>
</mxfile>
